<svg xmlns="http://www.w3.org/2000/svg" viewBox="0 0 1200 675" role="img" aria-labelledby="title desc"><title id="title">Smart home and e-bike security illustration</title><desc id="desc">A fingerprint smart lock protects a home while a camera and motion alarm watch over an e-bike.</desc><defs><linearGradient id="bg" x1="0" x2="1" y1="0" y2="1"><stop stop-color="#0b1220"/><stop offset="1" stop-color="#17243a"/></linearGradient><linearGradient id="accent" x1="0" x2="1"><stop stop-color="#55c6ff"/><stop offset="1" stop-color="#fb923c"/></linearGradient><filter id="shadow"><feDropShadow dx="0" dy="20" stdDeviation="20" flood-opacity=".3"/></filter></defs><rect width="1200" height="675" rx="42" fill="url(#bg)"/><circle cx="170" cy="120" r="110" fill="#55c6ff" opacity=".08"/><circle cx="1035" cy="150" r="135" fill="#fb923c" opacity=".1"/><g fill="none" stroke-linecap="round" stroke-linejoin="round" filter="url(#shadow)"><path d="M190 370 565 135l375 235v205H190z" stroke="url(#accent)" stroke-width="18"/><path d="M440 575V360h250v215M520 575V450h90v125" stroke="#f8fafc" stroke-width="16"/><g transform="translate(535 355)"><rect x="-68" y="-105" width="136" height="210" rx="50" fill="#111c30" stroke="#fb923c" stroke-width="12"/><circle cy="-28" r="35" stroke="#55c6ff" stroke-width="10"/><path d="M-18-22c5-17 31-17 36 0M-25-5c10-34 40-34 50 0M-22 15c8-19 36-19 44 0M0-7v36" stroke="#55c6ff" stroke-width="7"/><circle cy="70" r="12" fill="#fb923c" stroke="none"/></g><g transform="translate(875 205)"><path d="M-110 5h150a35 35 0 0 1 35 35v60H-110z" fill="#111c30" stroke="#55c6ff" stroke-width="12"/><circle cx="8" cy="52" r="33" stroke="#fb923c" stroke-width="10"/><circle cx="8" cy="52" r="12" fill="#55c6ff" stroke="none"/><path d="m75 48 75-38v95l-75-30M-80 100v55" stroke="#f8fafc" stroke-width="13"/></g><g transform="translate(905 500)" stroke-width="12"><circle cx="-90" cy="35" r="62" stroke="#55c6ff"/><circle cx="95" cy="35" r="62" stroke="#55c6ff"/><path d="m-90 35 68-105 60 105H-90l38-70H75M-10-70h65M38 35l57 0" stroke="#f8fafc"/><rect x="-25" y="-128" width="70" height="48" rx="12" fill="#111c30" stroke="#fb923c"/><path d="M10-145v-32M-12-165c12-14 32-14 44 0M-32-185c23-29 61-29 84 0" stroke="#fb923c"/></g><path d="M245 250q55-55 110 0M268 275q32-30 64 0" stroke="#55c6ff" stroke-width="10"/><circle cx="300" cy="300" r="8" fill="#fb923c" stroke="none"/></g><text x="70" y="620" fill="#f8fafc" font-family="system-ui,sans-serif" font-size="34" font-weight="800">MOXIE’S SPECIAL PICKS • SMART SECURITY</text></svg>